PathFileType	4	(X/Y/Z)	Patient3_R_KneeIso_Processed.trc
DataRate	CameraRate	NumFrames	NumMarkers	Units	OrigDataRate	OrigDataStartFrame	OrigNumFrames
100.000000000000	100.000000000000	7	33	mm	100.000000000000	264	       301
Frame#	Time	L.Toe			Neck			R.Toe			R.Shoulder			L.Wrist			L.Shank.Lateral			L.Elbow			R.Shank.Lateral			L.Shoulder			R.Midfoot.Lateral			L.Midfoot.Superior			R.Midfoot.Superior			R.Heel			R.Thigh.Lateral			L.Heel			R.Patella			L.Midfoot.Lateral			R.Elbow			R.Wrist			R.Shank.Inferior			Sternum			R.Thigh.Inferior			L.Shank.Inferior			R.Shank.Superior			L.Thigh.Superior			R.Thigh.Superior			R.Asis			L.Asis			L.Shank.Superior			L.Patella			Sacral			L.Thigh.Lateral			L.Thigh.Inferior			
		X1	Y1	Z1	X2	Y2	Z2	X3	Y3	Z3	X4	Y4	Z4	X5	Y5	Z5	X6	Y6	Z6	X7	Y7	Z7	X8	Y8	Z8	X9	Y9	Z9	X10	Y10	Z10	X11	Y11	Z11	X12	Y12	Z12	X13	Y13	Z13	X14	Y14	Z14	X15	Y15	Z15	X16	Y16	Z16	X17	Y17	Z17	X18	Y18	Z18	X19	Y19	Z19	X20	Y20	Z20	X21	Y21	Z21	X22	Y22	Z22	X23	Y23	Z23	X24	Y24	Z24	X25	Y25	Z25	X26	Y26	Z26	X27	Y27	Z27	X28	Y28	Z28	X29	Y29	Z29	X30	Y30	Z30	X31	Y31	Z31	X32	Y32	Z32	X33	Y33	Z33	

264	3.630000000000	650.687455789862	42.324230050382	367.176532038344	464.361234518542	1481.734175103764	344.960473082100	572.920315011189	51.343185897924	620.674506280164	510.637075854014	1460.283736445775	489.840112004540	515.743813504262	1075.233345255405	-54.926363621121	417.859978630663	321.927609313143	294.845172837207	328.704855356559	1142.313853325156	109.671831829029	473.738549024848	407.069912037917	644.154371205709	489.645421429489	1442.631404863265	197.528677435314	364.842101891814	97.661808733805	657.331594767674	532.748947417619	89.770008119842	388.900995313023	464.973052609068	128.799796162391	606.831108592107	283.428756704280	118.835332625468	594.348996731056	554.451740144014	690.081775416141	607.567316354478	363.822695750102	33.232469298480	437.920624510571	637.610232822168	501.406273072978	554.965383631298	435.362090856916	27.434544074232	365.213771580513	536.632228213366	1154.536754431819	662.640116933393	667.577439662560	1235.670006816491	462.847849036476	473.567243304145	255.534636015336	601.044237954828	600.307696783858	1384.554662487857	344.257831565581	636.772701451332	628.229282490198	541.956976519296	493.030146985496	229.690323406731	363.058807836069	565.896874439739	404.251063641005	588.730584303641	603.357755615146	720.678544490391	273.258481709920	629.863403766503	743.039878487448	539.468552792441	572.050230970567	993.622082596562	511.941117529941	574.060651355659	951.540287717749	251.160606194899	512.384200138995	380.397661504242	325.468177284892	556.284128664578	488.947217790950	330.484284114058	401.863967173359	1004.721513052553	381.702819298421	495.456801171727	651.030766559680	245.461269642725	574.864866046017	598.433442623969	300.645225911817	
265	3.640000000000	650.686678654169	42.337954522147	367.179636943736	464.506748196725	1481.762239622858	344.811474601402	576.422265065819	50.966542021782	619.460502528478	510.675242647130	1460.333302137306	489.732091607892	515.916813904628	1075.247076741847	-54.989190389266	417.827864007267	321.912997694023	294.817065810213	328.802765600007	1142.392169180006	109.486449905565	473.761068266726	405.774119340830	644.028950004675	489.891209042563	1442.606881422299	197.408190737886	368.001169292577	95.220540693748	656.696024211840	532.741563054848	89.771317963702	388.903784034076	467.730205599733	127.443387774079	606.071843929436	286.256219104567	115.804600358055	593.956231979021	553.531105169263	689.990749688201	607.508024638991	363.817523319896	33.228130061973	437.916390678449	636.385444769121	501.511940469140	554.697265719623	435.362292519651	27.433365357888	365.210073774242	536.374915019226	1154.633490749274	662.649453537553	667.518893816511	1235.632468312402	462.928874312739	475.027315463262	254.344215544715	600.548536382848	600.406380948031	1384.516780088123	344.241463127189	635.635980540136	627.951523066491	541.894884069164	493.003008931253	229.689795156966	363.068993897460	565.775779174987	404.057734212940	588.358708958110	603.201128836829	720.646467037692	273.268721462888	629.104092813970	742.806909428525	539.506957997480	571.717087687081	993.587007668017	511.974539932234	573.995410898908	951.503185375880	251.228986285224	512.321684756730	380.390964014915	325.475259149408	556.220149817904	488.969982566405	330.507932366504	401.718029239787	1004.785643197057	381.596499440982	495.288764475277	651.019292476125	245.445257042403	574.741042754682	598.426641979297	300.663597239122	
266	3.650000000000	650.685372964204	42.353547590506	367.182203208702	464.656845750289	1481.790277206607	344.658390698769	579.883300800613	50.632138312032	618.245562210823	510.713649181565	1460.382947252082	489.622516861207	516.101969804736	1075.243013758266	-55.046097781445	417.798397121430	321.901064427726	294.782267718865	328.911012527927	1142.463705869371	109.301398522011	473.805056772099	404.511693375707	643.889373185893	490.142757122892	1442.579290300693	197.285152100673	371.145725026742	92.853128302345	656.042505963707	532.734516470470	89.774256939315	388.904615669542	470.467662655169	126.138435623605	605.304295812251	289.083225650856	112.854978380956	593.540839844558	552.616497682443	689.901454513063	607.446593507147	363.811952053340	33.222866659058	437.912915089490	635.174141613831	501.635459583057	554.412868201118	435.362726544229	27.432414868431	365.206496590913	536.104089675618	1154.729869871266	662.659029421067	667.454815144595	1235.591402127205	463.014304419271	476.486552443736	253.195047490627	600.041005601537	600.505702886606	1384.475221393445	344.226550051330	634.505638410912	627.683180852102	541.821769879968	492.974721868166	229.689342352937	363.072894892234	565.663987638022	403.876806462398	587.978441886932	603.048565085098	720.616914024531	273.272133629572	628.344580829327	742.577545094217	539.538241799383	571.390532078723	993.552154199992	512.011447131135	573.932716784817	951.469188990209	251.294610215007	512.259881896557	380.383387564934	325.473663187476	556.163925217390	488.994228208869	330.518977537178	401.572648038789	1004.847746718962	381.486419224268	495.127439516516	651.009772383880	245.423678929347	574.622156959397	598.421452751781	300.672816877749	
267	3.660000000000	650.683529492322	42.371016757794	367.184263060364	464.810188153410	1481.818402937410	344.502123469075	583.299416361950	50.339677677058	617.034763733080	510.751430224593	1460.432702925323	489.512119205054	516.297707918261	1075.220544687524	-55.097207125213	417.772285239791	321.891961717500	294.740772305767	329.028906092933	1142.528517458700	109.117238166286	473.867988984759	403.284312095282	643.735517019041	490.398176339261	1442.549268312325	197.160405478301	374.270910320628	90.561948806506	655.374821355627	532.727843871079	89.779012979859	388.903470566648	473.181907312876	124.886152686351	604.532021311357	291.904999159313	109.989231348433	593.105613370301	551.711378094648	689.814434987435	607.382370980054	363.806032679931	33.216466872942	437.910420617944	633.978565636552	501.776236371428	554.114258747173	435.363397541385	27.431677789535	365.203173838461	535.820830986251	1154.825417683902	662.668471532217	667.385361471395	1235.547549836599	463.103837675560	477.942605698763	252.088260817885	599.524386642785	600.604729694217	1384.430597351188	344.213381876997	633.386953089511	627.424708515537	541.737961939629	492.945558619880	229.689024504864	363.070432957946	565.561565806658	403.708578512712	587.591618517969	602.901743665565	720.591052378819	273.270307047051	627.588508385139	742.352484410512	539.561203290919	571.072523129187	993.517893694782	512.051469555606	573.872642273801	951.438764676704	251.357057018715	512.199607162981	380.375017488744	325.463485190262	556.116214649973	489.020014484150	330.516978548660	401.428643404029	1004.907840900805	381.373070287208	494.975413828925	651.002446370564	245.396419983853	574.509731503898	598.418475172545	300.673420633190	
268	3.670000000000	650.681154240320	42.390318771894	367.185857207312	464.965472146663	1481.846650036155	344.343668648817	586.667160460418	50.088855257288	615.835274735381	510.787780271908	1460.482550582114	489.401645236308	516.502324905415	1075.179326868088	-55.142696902340	417.749911162987	321.885759906839	294.692808486117	329.155543265614	1142.586885781338	108.934343794288	473.946012535091	402.093196232863	643.567061002321	490.655649720351	1442.517411224800	197.034878600742	377.371891197698	88.348754241414	654.697096920824	532.721546156632	89.785716877255	388.900406513362	475.869761034603	123.687282257129	603.759494318113	294.716971958027	107.208954678856	592.652782999659	550.818849606095	689.730052504975	607.314732027168	363.799878661337	33.208754152649	437.909096151599	632.800158567293	501.933155379859	553.804008677250	435.364339640503	27.431183571575	365.200236830308	535.526350581506	1154.919724975231	662.677575075085	667.310795583867	1235.501667416521	463.197256185526	479.392909033118	251.024577004116	599.001921371992	600.702634975968	1384.383508119853	344.202266767769	632.284648468356	627.175934193340	541.644115809435	492.915730733516	229.688879797240	363.061601935304	565.467863051881	403.553359019496	587.200657724112	602.762007976467	720.569904307810	273.264354404337	626.839681108764	742.132080073134	539.574982029980	570.764930183295	993.484395866292	512.093850213482	573.815050750708	951.412257321491	251.415724640551	512.141470392215	380.366010477707	325.444943606336	556.077322461058	489.047319962543	330.501625313484	401.286852581041	1004.965944744782	381.257124499407	494.834602200787	650.997490073582	245.363437640431	574.404970716839	598.418196323509	300.665655284584	
269	3.680000000000	650.678267596236	42.411354286647	367.187031369425	465.121451167659	1481.874950055094	344.184119176202	589.983826984968	49.879450826032	614.655717861740	510.821998781555	1460.532379142792	489.291853625170	516.714052590829	1075.119310434932	-55.182789915515	417.731290060216	321.882439993423	294.638838399338	329.289851038874	1142.639276117206	108.752934753917	474.034318020329	400.939042239774	643.383705469273	490.913467623200	1442.484248647045	196.909557090018	380.444119297296	86.214590487042	654.013668467738	532.715588140164	89.794430936423	388.895553832180	478.528486484761	122.542125802667	602.991806301438	297.514912431710	104.514515842269	592.184097204640	549.941482410919	689.648454490150	607.243178613027	363.793662921163	33.199592007554	437.909091382685	631.639548509624	502.104725617051	553.485207654164	435.365609948115	27.431003073174	365.197806587787	535.222054333994	1155.012397309303	662.686293317842	667.231515888123	1235.454463561898	463.294388044000	480.834797643577	250.004287216960	598.477208094370	600.798726059445	1384.334509175314	344.193509392500	631.202621960118	626.936107918729	541.541300286244	492.885375938157	229.688926465099	363.046461859434	565.381586280341	403.411422842848	586.808454654185	602.630299517359	720.554274899524	273.254779126248	626.101830076381	741.916303564461	539.579214976603	570.469569496575	993.451610863739	512.137484351802	573.759626760828	951.389868745610	251.469822809749	512.085846794578	380.356603282856	325.418357755682	556.047046690902	489.076025701670	330.472743437405	401.148129158093	1005.022051089501	381.139411660185	494.706111890318	650.994998101350	245.324754083613	574.308676145593	598.420940023188	300.649399595379	
270	3.690000000000	650.674904988671	42.433964061864	367.187833802283	465.276951602345	1481.903128064353	344.024664896470	593.247596090562	49.711375849434	613.505346996152	510.853528816701	1460.581953654469	489.183512675518	516.931122361633	1075.040760680036	-55.217749035446	417.716059323687	321.881894241821	294.579548106581	329.430638515715	1142.686285903696	108.573115854660	474.127593602818	399.822001144236	643.185417510390	491.170050160278	1442.450233806552	196.785454007191	383.483601420362	84.159737647277	653.328959965808	532.709900601761	89.805141300445	388.889106979498	481.155873613791	121.450575837669	602.234308301905	300.295026143671	101.905078550020	591.701014167531	549.081164726861	689.569570339132	607.167423356607	363.787612252679	33.188891704442	437.910508939827	630.496551291670	502.289241991746	553.161421725548	435.367278908285	27.431239529614	365.195986977608	534.909604452096	1155.103006072364	662.694707222474	667.148084534807	1235.406545699404	463.395056716201	482.265632390625	249.027252019531	597.954037009609	600.892462883657	1384.284091325288	344.187384277533	630.143750874899	626.704004420578	541.431086160621	492.854559067595	229.689166988241	363.025140127287	565.300903973792	403.282972843494	586.418213366490	602.507141862189	720.544691732297	273.241385110395	625.378381369172	741.704753465699	539.574177276672	570.188230808252	993.419275220505	512.180984427703	573.705926943384	951.371643357993	251.518392492910	512.032877426123	380.347106457885	325.384125120414	556.024674057590	489.105907407520	330.430312707169	401.013345880154	1005.076112513308	381.020882958115	494.590180968604	650.994973261986	245.280451957617	574.221206127219	598.426829462025	300.624128155930	
